<?xml version="1.0" encoding="UTF-8"?><svg id="Layer_1" xmlns="http://www.w3.org/2000/svg" xmlns:xlink="http://www.w3.org/1999/xlink" viewBox="0 0 16 16"><defs><style>.cls-1{clip-path:url(#clippath);}.cls-2{fill:none;}.cls-2,.cls-3,.cls-4,.cls-5,.cls-6{stroke-width:0px;}.cls-3{fill:#26a6fe;opacity:.5;}.cls-7{opacity:.15;}.cls-4{fill:#3083fc;}.cls-5{fill:#1b1464;}.cls-6{fill:#fff;}</style><clipPath id="clippath"><rect class="cls-2" width="16" height="16"/></clipPath></defs><rect class="cls-4" width="16" height="16"/><g class="cls-1"><rect class="cls-4" x=".5" y=".8" width="15" height="14.4" rx="1.3" ry="1.3"/><g class="cls-7"><path class="cls-5" d="m12.31,9.79c-.45-1.67-2.3-.63-2.3-.63l-.92-.21.49.94c-.19,1.08.45,1.8.45,1.8.33.41.78.65,1.25.78v.54h.19v-.49c.13.03.26.05.39.06v.44h.21v-.42c.99.05,1.89-.21,1.89-.21-.93-.14-1.27-.95-1.65-2.59Zm-1.78-.12c-.13,0-.23-.1-.23-.23,0-.13.1-.23.23-.23s.23.1.23.23c0,.13-.1.23-.23.23Z"/><path class="cls-5" d="m5.9,13h.21v-.55c.48-.17.92-.43,1.25-.82,0,0,.8-.85.55-2.1l.61-1.1-1.16.26s-2.37-1.18-2.92.77c-.45,1.91-.88,2.85-2.06,3.03,0,0,1.5.38,2.95.16v.35h.19v-.39c.13-.03.26-.06.39-.1v.48Zm.92-4.17c.15,0,.27.12.27.27,0,.15-.12.27-.27.27-.15,0-.27-.12-.27-.27,0-.15.12-.27.27-.27Z"/></g><path class="cls-6" d="m11.98,9.46c-.45-1.67-2.3-.63-2.3-.63l-.92-.21.49.94c-.19,1.08.45,1.8.45,1.8.33.41.78.65,1.25.78v.54h.19v-.49c.13.03.26.05.39.06v.44h.21v-.42c.99.05,1.89-.21,1.89-.21-.93-.14-1.27-.95-1.65-2.59Zm-1.78-.12c-.13,0-.23-.1-.23-.23,0-.13.1-.23.23-.23s.23.1.23.23c0,.13-.1.23-.23.23Z"/><path class="cls-6" d="m5.57,12.67h.21v-.55c.48-.17.92-.43,1.25-.82,0,0,.8-.85.55-2.1l.61-1.1-1.16.26s-2.37-1.18-2.92.77c-.45,1.91-.88,2.85-2.06,3.03,0,0,1.5.38,2.95.16v.35h.19v-.39c.13-.03.26-.06.39-.1v.48Zm.92-4.17c.15,0,.27.12.27.27,0,.15-.12.27-.27.27-.15,0-.27-.12-.27-.27,0-.15.12-.27.27-.27Z"/><path class="cls-5" d="m10.41,3.26h-5.14c-.22,0-.4.18-.4.4v2.44c0,.22.18.4.4.4h3.27v.78l.78-.78h1.09c.22,0,.4-.18.4-.4v-2.44c0-.22-.18-.4-.4-.4Z"/><circle class="cls-4" cx="6.58" cy="4.84" r=".37"/><circle class="cls-3" cx="7.79" cy="4.84" r=".37"/><circle class="cls-3" cx="9" cy="4.84" r=".37"/></g></svg>